<svg width="101" height="17" viewBox="0 0 101 17" fill="none" xmlns="http://www.w3.org/2000/svg">
<path d="M10.0035 1.45459H12.6384V10.9574C12.6384 11.9991 12.3922 12.9153 11.8998 13.706C11.4121 14.4967 10.7256 15.1146 9.84015 15.5597C8.95474 16 7.92017 16.2202 6.73646 16.2202C5.54801 16.2202 4.51108 16 3.62567 15.5597C2.74025 15.1146 2.0537 14.4967 1.56601 13.706C1.07832 12.9153 0.834473 11.9991 0.834473 10.9574V1.45459H3.46942V10.7373C3.46942 11.3433 3.60199 11.8831 3.86714 12.3566C4.13703 12.8301 4.51582 13.2017 5.00351 13.4716C5.4912 13.7368 6.06885 13.8694 6.73646 13.8694C7.40408 13.8694 7.98173 13.7368 8.46942 13.4716C8.96184 13.2017 9.34063 12.8301 9.60578 12.3566C9.87093 11.8831 10.0035 11.3433 10.0035 10.7373V1.45459Z" fill="white"/>
<path d="M17.9598 9.608V16H15.3888V5.09095H17.8462V6.94465H17.974C18.225 6.33385 18.6251 5.84853 19.1743 5.48868C19.7283 5.12883 20.4125 4.94891 21.2269 4.94891C21.9797 4.94891 22.6355 5.10989 23.1942 5.43186C23.7577 5.75383 24.1933 6.22022 24.501 6.83101C24.8135 7.44181 24.9674 8.18281 24.9627 9.05402V16H22.3916V9.45175C22.3916 8.72258 22.2023 8.15203 21.8235 7.7401C21.4494 7.32817 20.9309 7.1222 20.2681 7.1222C19.8183 7.1222 19.4182 7.22163 19.0678 7.4205C18.7221 7.61463 18.4499 7.89635 18.251 8.26567C18.0569 8.63499 17.9598 9.08243 17.9598 9.608Z" fill="white"/>
<path d="M33.0238 5.09095V7.07959H26.7524V5.09095H33.0238ZM28.3007 2.47732H30.8718V12.7188C30.8718 13.0644 30.9238 13.3296 31.028 13.5142C31.1369 13.6942 31.279 13.8173 31.4541 13.8836C31.6293 13.9499 31.8235 13.983 32.0365 13.983C32.1975 13.983 32.3443 13.9712 32.4769 13.9475C32.6142 13.9238 32.7184 13.9025 32.7894 13.8836L33.2226 15.8935C33.0853 15.9409 32.8888 15.9929 32.6331 16.0498C32.3822 16.1066 32.0744 16.1397 31.7098 16.1492C31.0659 16.1681 30.4859 16.0711 29.9698 15.858C29.4537 15.6402 29.0441 15.304 28.7411 14.8495C28.4428 14.3949 28.296 13.8267 28.3007 13.1449V2.47732Z" fill="white"/>
<path d="M35.174 16V5.09095H37.745V16H35.174ZM36.4666 3.54266C36.0594 3.54266 35.709 3.40772 35.4154 3.13783C35.1219 2.86321 34.9751 2.53413 34.9751 2.15061C34.9751 1.76235 35.1219 1.43328 35.4154 1.1634C35.709 0.888775 36.0594 0.751465 36.4666 0.751465C36.8785 0.751465 37.2289 0.888775 37.5177 1.1634C37.8113 1.43328 37.9581 1.76235 37.9581 2.15061C37.9581 2.53413 37.8113 2.86321 37.5177 3.13783C37.2289 3.40772 36.8785 3.54266 36.4666 3.54266Z" fill="white"/>
<path d="M45.8363 5.09095V7.07959H39.5649V5.09095H45.8363ZM41.1132 2.47732H43.6843V12.7188C43.6843 13.0644 43.7363 13.3296 43.8405 13.5142C43.9494 13.6942 44.0915 13.8173 44.2666 13.8836C44.4418 13.9499 44.636 13.983 44.849 13.983C45.01 13.983 45.1568 13.9712 45.2894 13.9475C45.4267 13.9238 45.5309 13.9025 45.6019 13.8836L46.0351 15.8935C45.8978 15.9409 45.7013 15.9929 45.4456 16.0498C45.1947 16.1066 44.8869 16.1397 44.5223 16.1492C43.8784 16.1681 43.2984 16.0711 42.7823 15.858C42.2662 15.6402 41.8566 15.304 41.5536 14.8495C41.2553 14.3949 41.1085 13.8267 41.1132 13.1449V2.47732Z" fill="white"/>
<path d="M50.7919 1.45459V16H48.2208V1.45459H50.7919Z" fill="white"/>
<path d="M58.2652 16.2131C57.1715 16.2131 56.2269 15.9858 55.4314 15.5313C54.6407 15.072 54.0323 14.4233 53.6061 13.5853C53.18 12.7425 52.9669 11.7505 52.9669 10.6094C52.9669 9.48726 53.18 8.50241 53.6061 7.65487C54.037 6.8026 54.6383 6.13972 55.4101 5.66624C56.1819 5.18802 57.0886 4.94891 58.1303 4.94891C58.8026 4.94891 59.4371 5.05781 60.0337 5.27561C60.635 5.48868 61.1653 5.82012 61.6246 6.26993C62.0886 6.71974 62.4532 7.29266 62.7184 7.98868C62.9835 8.67997 63.1161 9.50383 63.1161 10.4603V11.2486H54.1743V9.51567H60.6516C60.6469 9.02324 60.5403 8.58527 60.332 8.20175C60.1237 7.81349 59.8325 7.50809 59.4584 7.28556C59.0891 7.06302 58.6582 6.95175 58.1658 6.95175C57.6402 6.95175 57.1786 7.07959 56.7809 7.33527C56.3831 7.58622 56.073 7.91766 55.8505 8.32959C55.6326 8.73679 55.5214 9.18423 55.5166 9.67192V11.1847C55.5166 11.8192 55.6327 12.3637 55.8647 12.8182C56.0967 13.268 56.421 13.6137 56.8377 13.8552C57.2543 14.0919 57.742 14.2103 58.3007 14.2103C58.6748 14.2103 59.0133 14.1582 59.3164 14.054C59.6194 13.9451 59.8822 13.7865 60.1047 13.5782C60.3273 13.3698 60.4953 13.1118 60.609 12.804L63.0095 13.0739C62.858 13.7084 62.5692 14.2624 62.1431 14.7358C61.7217 15.2046 61.1819 15.5692 60.5238 15.8296C59.8656 16.0853 59.1128 16.2131 58.2652 16.2131Z" fill="white"/>
<path d="M69.3394 16.1918C68.4824 16.1918 67.7154 15.9716 67.0383 15.5313C66.3612 15.091 65.8262 14.4517 65.4332 13.6137C65.0402 12.7756 64.8437 11.7576 64.8437 10.5597C64.8437 9.34758 65.0426 8.32486 65.4403 7.49152C65.8428 6.65345 66.3849 6.02135 67.0667 5.59521C67.7485 5.16434 68.5085 4.94891 69.3465 4.94891C69.9857 4.94891 70.5113 5.05781 70.9232 5.27561C71.3352 5.48868 71.6619 5.74673 71.9034 6.04976C72.1448 6.34806 72.3319 6.62978 72.4644 6.89493H72.571V1.45459H75.1491V16H72.6207V14.2813H72.4644C72.3319 14.5464 72.1401 14.8282 71.8892 15.1265C71.6382 15.42 71.3068 15.671 70.8948 15.8793C70.4829 16.0876 69.9644 16.1918 69.3394 16.1918ZM70.0568 14.0824C70.6013 14.0824 71.0653 13.9357 71.4488 13.6421C71.8323 13.3438 72.1235 12.9295 72.3224 12.3992C72.5213 11.8689 72.6207 11.251 72.6207 10.5455C72.6207 9.84001 72.5213 9.22684 72.3224 8.70601C72.1283 8.18518 71.8394 7.78035 71.4559 7.49152C71.0771 7.2027 70.6107 7.05828 70.0568 7.05828C69.4839 7.05828 69.0056 7.20743 68.6221 7.50573C68.2386 7.80402 67.9498 8.21595 67.7556 8.74152C67.5615 9.26709 67.4644 9.86842 67.4644 10.5455C67.4644 11.2273 67.5615 11.8357 67.7556 12.3708C67.9545 12.9011 68.2457 13.3201 68.6292 13.6279C69.0175 13.9309 69.4933 14.0824 70.0568 14.0824Z" fill="white"/>
<path d="M92.1324 1.45459H94.7674V10.9574C94.7674 11.9991 94.5211 12.9153 94.0287 13.706C93.541 14.4967 92.8545 15.1146 91.9691 15.5597C91.0836 16 90.0491 16.2202 88.8654 16.2202C87.6769 16.2202 86.64 16 85.7546 15.5597C84.8692 15.1146 84.1826 14.4967 83.6949 13.706C83.2072 12.9153 82.9634 11.9991 82.9634 10.9574V1.45459H85.5983V10.7373C85.5983 11.3433 85.7309 11.8831 85.996 12.3566C86.2659 12.8301 86.6447 13.2017 87.1324 13.4716C87.6201 13.7368 88.1978 13.8694 88.8654 13.8694C89.533 13.8694 90.1106 13.7368 90.5983 13.4716C91.0907 13.2017 91.4695 12.8301 91.7347 12.3566C91.9998 11.8831 92.1324 11.3433 92.1324 10.7373V1.45459Z" fill="white"/>
<path d="M100.266 1.45459V16H97.6313V1.45459H100.266Z" fill="white"/>
</svg>
